<?xml version="1.0" encoding="utf-8"?>
<!-- Generator: Adobe Illustrator 24.0.3, SVG Export Plug-In . SVG Version: 6.00 Build 0)  -->
<svg version="1.1" id="Layer_1" xmlns="http://www.w3.org/2000/svg" xmlns:xlink="http://www.w3.org/1999/xlink" width="425" height="289"
	 viewBox="0 0 159.8 25.5" style="enable-background:new 0 0 159.8 25.5;" xml:space="preserve">
<style type="text/css">
	.st0{fill:#295EE3;}
	.st1{fill:#141414;}
</style>
<path id="Logo" class="st0" d="M36.5,2.5c0-0.3-0.3-0.6-0.6-0.7C30.2,0.6,24.5,0,18.7,0C13,0,7.2,0.6,1.6,1.8C1.2,1.8,1,2.1,0.9,2.5
	C0.4,5.9,0.1,9.3,0,12.7c0.1,4,0.4,8,0.9,12c0,0.4,0.4,0.7,0.8,0.7c0.5,0,1.3,0,2.3,0c0.2-3.4,2.2-6.1,4.7-6.1s4.4,2.6,4.6,5.8h0.1
	c-0.1-0.4-0.1-0.9-0.1-1.3c0-3.6,2.4-6.5,5.4-6.5s5.4,2.9,5.4,6.5c0,0.4,0,0.9-0.1,1.3h0.1c0.2-3.3,2.2-5.8,4.6-5.8s4.5,2.7,4.7,6.1
	c1,0,1.8,0,2.3,0c0.4,0,0.7-0.3,0.8-0.7c0.5-4,0.9-8,0.9-12C37.3,9.3,37,5.9,36.5,2.5z M7.6,18.2c-1.9,0-3.4-1.5-3.4-3.4
	c0-1.9,1.5-3.4,3.4-3.4c1.9,0,3.4,1.5,3.4,3.4c0,0,0,0,0,0C11,16.6,9.5,18.2,7.6,18.2z M18.7,16.2c-2.3,0-4.1-1.8-4.1-4.1
	s1.8-4.1,4.1-4.1c2.3,0,4.1,1.8,4.1,4.1C22.8,14.3,21,16.2,18.7,16.2L18.7,16.2z M29.8,18.2c-1.9,0-3.4-1.5-3.4-3.4
	c0-1.9,1.5-3.4,3.4-3.4c1.9,0,3.4,1.5,3.4,3.4c0,0,0,0,0,0C33.2,16.6,31.7,18.2,29.8,18.2z"/>
<g id="Text">
	<path class="st1" d="M46.5,8V5.8H59V8h-5.1v13.1h-2.2V8H46.5z"/>
	<path class="st1" d="M67.5,18l1.3,1.6c-1.1,1.2-2.7,1.9-4.4,1.8c-1.6,0.1-3.1-0.5-4.2-1.6c-2.1-2.3-2.1-5.8,0-8.1
		c1-1.1,2.4-1.7,3.9-1.6c1.5-0.1,2.9,0.5,3.9,1.6c0.9,1,1.5,2.3,1.5,3.7c0,0.4,0,0.7-0.1,1.1H61c0.1,0.8,0.5,1.6,1.1,2.2
		c0.7,0.6,1.5,0.9,2.4,0.8C65.6,19.4,66.7,18.9,67.5,18z M64.1,12c-0.7,0-1.5,0.2-2,0.7c-0.6,0.5-0.9,1.2-1.1,1.9h6
		c-0.1-0.7-0.5-1.4-1-1.9C65.5,12.2,64.8,12,64.1,12L64.1,12z"/>
	<path class="st1" d="M72.9,13l-1-1.7c1.3-0.8,2.8-1.3,4.3-1.2c1.3-0.1,2.6,0.4,3.6,1.2c1,1.1,1.5,2.5,1.4,4v5.9H79v-1.5
		c-0.9,1.1-2.3,1.7-3.7,1.7c-1,0-2-0.3-2.8-0.9c-0.7-0.6-1.1-1.6-1.1-2.6c-0.1-1,0.4-2,1.1-2.7c0.9-0.7,2-1.1,3.1-1
		c1.1,0,2.3,0.3,3.3,0.7c-0.1-2-1-3-2.9-3C74.9,12,73.8,12.3,72.9,13z M75.8,19.6c1.3,0,2.5-0.7,3.2-1.7v-1.4
		c-0.9-0.5-1.9-0.7-2.8-0.7c-0.7,0-1.3,0.2-1.8,0.5c-0.4,0.3-0.7,0.9-0.6,1.4c0,0.5,0.2,1,0.6,1.4C74.7,19.4,75.2,19.6,75.8,19.6
		L75.8,19.6z"/>
	<path class="st1" d="M99,21.1v-6.5c0.1-0.7-0.2-1.4-0.6-2c-0.4-0.4-1-0.7-1.6-0.7c-0.8,0-1.5,0.3-2,0.9c-0.5,0.6-0.8,1.4-0.8,2.2v6
		h-2.2v-6.5c0.1-0.7-0.2-1.4-0.6-2c-0.4-0.4-1-0.7-1.6-0.7c-0.8,0-1.5,0.3-2,0.9c-0.5,0.6-0.8,1.4-0.8,2.2v6h-2.2V10.2h2.2V12
		c0.6-1.3,2-2.1,3.5-2c1.5-0.1,2.8,0.8,3.4,2.1c0.7-1.4,2.2-2.2,3.8-2.1c1.1,0,2.1,0.4,2.9,1.1c0.8,0.9,1.1,2.1,1.1,3.3v6.8L99,21.1
		z"/>
	<path class="st1" d="M116.6,15.6l2.2,0.7c-0.5,1.5-1.4,2.8-2.7,3.7c-1.3,0.9-2.8,1.4-4.4,1.4c-2,0-4-0.8-5.4-2.3
		c-2.9-3.2-2.9-8,0-11.2c1.4-1.5,3.4-2.3,5.4-2.3c1.6,0,3.1,0.5,4.4,1.4c1.3,0.9,2.2,2.2,2.7,3.7l-2.2,0.7c-0.4-1-1-2-1.9-2.6
		c-0.9-0.7-1.9-1-3-1c-1.4,0-2.8,0.6-3.8,1.6c-2,2.3-2,5.8,0,8.1c1,1.1,2.3,1.7,3.8,1.6c1.1,0,2.1-0.3,3-1
		C115.6,17.5,116.2,16.6,116.6,15.6z"/>
	<path class="st1" d="M121.4,21.1V5.8h2.2v15.3H121.4z"/>
	<path class="st1" d="M127.9,13l-1-1.7c1.3-0.8,2.8-1.3,4.3-1.2c1.3-0.1,2.6,0.4,3.6,1.2c1,1.1,1.5,2.5,1.3,4v5.9H134v-1.5
		c-0.9,1.1-2.3,1.7-3.7,1.7c-1,0-2-0.3-2.8-0.9c-0.7-0.6-1.1-1.6-1.1-2.6c0-1,0.4-2,1.2-2.7c0.9-0.7,2-1.1,3.1-1
		c1.1,0,2.3,0.3,3.3,0.7c-0.1-2-1-3-2.9-3C130,12,128.9,12.3,127.9,13z M130.8,19.6c1.3,0,2.5-0.7,3.2-1.7v-1.4
		c-0.9-0.5-1.9-0.7-2.8-0.7c-0.7,0-1.3,0.1-1.8,0.5c-0.4,0.3-0.7,0.9-0.7,1.4c0,0.5,0.2,1,0.6,1.4C129.7,19.5,130.2,19.6,130.8,19.6
		L130.8,19.6z"/>
	<path class="st1" d="M138.9,18.6l2.1-0.7c0.2,1.1,1.1,1.7,2.7,1.7s2.3-0.4,2.3-1.2c0-0.2,0-0.3-0.1-0.4c-0.1-0.1-0.2-0.3-0.3-0.4
		c-0.1-0.1-0.3-0.2-0.4-0.3c-0.2-0.1-0.4-0.2-0.5-0.2l-0.6-0.2c-0.2-0.1-0.4-0.1-0.6-0.2l-0.5-0.2c-1-0.2-2-0.6-2.9-1.2
		c-0.7-0.5-1.1-1.3-1-2.2c0-0.9,0.4-1.8,1.2-2.3c0.9-0.6,2-0.9,3.2-0.8c1.2,0,2.3,0.3,3.3,0.9c0.8,0.5,1.3,1.5,1.3,2.5v0.1h-2.2l0,0
		c0-1.1-0.8-1.6-2.4-1.6c-0.5,0-1.1,0.1-1.5,0.3c-0.3,0.2-0.5,0.5-0.6,0.9c0,0.1,0,0.2,0,0.3c0,0.1,0.1,0.2,0.2,0.3l0.2,0.2
		c0.1,0.1,0.2,0.1,0.3,0.2l0.4,0.2l0.4,0.1l0.4,0.1l0.5,0.1l0.5,0.1c0.6,0.1,1.1,0.3,1.5,0.4c0.4,0.2,0.8,0.4,1.2,0.6
		c0.4,0.2,0.7,0.6,1,1c0.2,0.4,0.3,0.9,0.3,1.4c0,0.9-0.4,1.8-1.2,2.3c-1,0.6-2.1,0.9-3.3,0.8c-1.1,0-2.2-0.2-3.2-0.7
		C139.7,20.2,139.1,19.5,138.9,18.6z"/>
	<path class="st1" d="M150.5,18.6l2.1-0.7c0.2,1.1,1.1,1.7,2.7,1.7s2.3-0.4,2.3-1.2c0-0.2,0-0.3-0.1-0.4c-0.1-0.1-0.2-0.3-0.3-0.4
		c-0.1-0.1-0.3-0.2-0.4-0.3c-0.2-0.1-0.4-0.2-0.6-0.2l-0.6-0.2c-0.2-0.1-0.4-0.1-0.6-0.2l-0.6-0.1c-1-0.2-2-0.6-2.9-1.2
		c-0.7-0.5-1.1-1.3-1-2.2c0-0.9,0.4-1.8,1.2-2.3c0.9-0.6,2-0.9,3.2-0.8c1.2,0,2.3,0.3,3.3,0.9c0.8,0.5,1.3,1.5,1.3,2.5v0.1h-2.2l0,0
		c0-1.1-0.8-1.6-2.4-1.6c-0.5,0-1.1,0.1-1.5,0.3c-0.3,0.2-0.5,0.5-0.6,0.9c0,0.1,0,0.2,0.1,0.3c0,0.1,0.1,0.2,0.2,0.3l0.2,0.2
		c0.1,0.1,0.2,0.1,0.3,0.2l0.4,0.2l0.4,0.1l0.5,0l0.5,0.1l0.5,0.1c0.6,0.1,1.1,0.3,1.5,0.4c0.4,0.2,0.8,0.4,1.2,0.6
		c0.4,0.2,0.7,0.6,0.9,1c0.2,0.4,0.3,0.9,0.3,1.4c0,0.9-0.4,1.8-1.3,2.3c-1,0.6-2.1,0.9-3.3,0.8c-1.1,0-2.2-0.2-3.2-0.7
		C151.2,20.2,150.7,19.5,150.5,18.6z"/>
</g>
</svg>
