<svg id="Layer_1" data-name="Layer 1" xmlns="http://www.w3.org/2000/svg" viewBox="0 0 159.8 25.5"><defs><style>.cls-1{fill:#62cbf2;}.cls-2{fill:#141414;}</style></defs><path id="Logo" class="cls-1" d="M100.62,78.92a.83.83,0,0,0-.64-.7,82.22,82.22,0,0,0-17.16-1.77,83.3,83.3,0,0,0-17.16,1.77.84.84,0,0,0-.65.7,80.7,80.7,0,0,0-.91,10.22,100.08,100.08,0,0,0,.91,12,.83.83,0,0,0,.76.73c.52,0,1.34,0,2.34,0,.15-3.38,2.17-6.06,4.65-6.06s4.4,2.55,4.63,5.82h.13a7.63,7.63,0,0,1-.1-1.28c0-3.6,2.42-6.51,5.4-6.51s5.4,2.91,5.4,6.51a7.63,7.63,0,0,1-.1,1.28h.13c.23-3.27,2.21-5.82,4.63-5.82s4.5,2.68,4.65,6.06c1,0,1.82,0,2.34,0a.83.83,0,0,0,.76-.73,97.91,97.91,0,0,0,.91-12A89.28,89.28,0,0,0,100.62,78.92ZM71.72,94.63a3.42,3.42,0,1,1,3.42-3.42A3.42,3.42,0,0,1,71.72,94.63Zm11.1-2a4.12,4.12,0,1,1,4.12-4.12A4.12,4.12,0,0,1,82.82,92.61Zm11.09,2a3.42,3.42,0,1,1,3.42-3.42A3.42,3.42,0,0,1,93.91,94.63Z" transform="translate(-64.1 -76.45)"/><g id="Text"><path class="cls-2" d="M110.58,84.43V82.29h12.55v2.14H118V97.57h-2.25V84.43Z" transform="translate(-64.1 -76.45)"/><path class="cls-2" d="M131.6,94.45,132.87,96a5.76,5.76,0,0,1-4.41,1.81,5.46,5.46,0,0,1-4.18-1.64,6.11,6.11,0,0,1,0-8.11,5.1,5.1,0,0,1,3.87-1.63A4.9,4.9,0,0,1,132,88.05a5.37,5.37,0,0,1,1.47,3.69,5.6,5.6,0,0,1-.11,1.05h-8.3a3.6,3.6,0,0,0,1.1,2.19,3.4,3.4,0,0,0,2.39.84A4.16,4.16,0,0,0,131.6,94.45Zm-3.43-6a2.86,2.86,0,0,0-2,.73,3.46,3.46,0,0,0-1.08,1.93h6a3.46,3.46,0,0,0-1-1.91A2.74,2.74,0,0,0,128.17,88.4Z" transform="translate(-64.1 -76.45)"/><path class="cls-2" d="M137,89.4l-1-1.74a8.11,8.11,0,0,1,4.34-1.25,5.06,5.06,0,0,1,3.57,1.23,5.17,5.17,0,0,1,1.35,4v5.92h-2.19V96.11a5,5,0,0,1-3.71,1.68,4.13,4.13,0,0,1-2.8-.92,3.18,3.18,0,0,1-1.06-2.55,3.34,3.34,0,0,1,1.15-2.7,4.73,4.73,0,0,1,3.13-1,8.18,8.18,0,0,1,3.29.72c-.06-2-1-3-2.9-3A6.42,6.42,0,0,0,137,89.4Zm2.88,6.66a3.91,3.91,0,0,0,3.23-1.74V92.94a6.09,6.09,0,0,0-2.84-.7,2.87,2.87,0,0,0-1.83.53,1.73,1.73,0,0,0-.65,1.44,1.66,1.66,0,0,0,.6,1.37A2.3,2.3,0,0,0,139.83,96.06Z" transform="translate(-64.1 -76.45)"/><path class="cls-2" d="M163.1,97.57V91.06a2.72,2.72,0,0,0-.62-2,2.12,2.12,0,0,0-1.6-.65,2.53,2.53,0,0,0-2,.93,3.27,3.27,0,0,0-.79,2.2v6h-2.23V91.06a2.72,2.72,0,0,0-.62-2,2.1,2.1,0,0,0-1.58-.65,2.53,2.53,0,0,0-2,.93,3.27,3.27,0,0,0-.79,2.2v6h-2.23V86.65h2.23v1.79a3.62,3.62,0,0,1,3.47-2,3.38,3.38,0,0,1,3.37,2.12,4,4,0,0,1,3.77-2.12,3.77,3.77,0,0,1,2.85,1.11,4.51,4.51,0,0,1,1.06,3.26v6.79Z" transform="translate(-64.1 -76.45)"/><path class="cls-2" d="M180.7,92l2.18.72a7.5,7.5,0,0,1-2.71,3.66,7.21,7.21,0,0,1-4.38,1.41,7.32,7.32,0,0,1-5.44-2.26,8.23,8.23,0,0,1,0-11.2,7.28,7.28,0,0,1,5.44-2.26,7.21,7.21,0,0,1,4.38,1.41,7.52,7.52,0,0,1,2.71,3.65l-2.18.72a5.64,5.64,0,0,0-1.9-2.63,4.82,4.82,0,0,0-3-1A5,5,0,0,0,172,85.87,6.15,6.15,0,0,0,172,94a5,5,0,0,0,3.78,1.64,4.77,4.77,0,0,0,3-1A5.59,5.59,0,0,0,180.7,92Z" transform="translate(-64.1 -76.45)"/><path class="cls-2" d="M185.52,97.57V82.29h2.23V97.57Z" transform="translate(-64.1 -76.45)"/><path class="cls-2" d="M192,89.4l-1-1.74a8.11,8.11,0,0,1,4.35-1.25,5.1,5.1,0,0,1,3.57,1.23,5.21,5.21,0,0,1,1.34,4v5.92H198.1V96.11a5,5,0,0,1-3.71,1.68,4.15,4.15,0,0,1-2.81-.92,3.18,3.18,0,0,1-1.06-2.55,3.35,3.35,0,0,1,1.16-2.7,4.68,4.68,0,0,1,3.12-1,8.26,8.26,0,0,1,3.3.72q-.09-3-2.91-3A6.42,6.42,0,0,0,192,89.4Zm2.88,6.66a3.93,3.93,0,0,0,3.23-1.74V92.94a6.12,6.12,0,0,0-2.84-.7,2.83,2.83,0,0,0-1.83.53,1.74,1.74,0,0,0-.66,1.44,1.66,1.66,0,0,0,.6,1.37A2.33,2.33,0,0,0,194.87,96.06Z" transform="translate(-64.1 -76.45)"/><path class="cls-2" d="M203,95l2.12-.7c.23,1.12,1.12,1.68,2.66,1.68s2.29-.4,2.29-1.2a1.08,1.08,0,0,0-.09-.44.9.9,0,0,0-.3-.36,3.58,3.58,0,0,0-.41-.27,2.93,2.93,0,0,0-.55-.22l-.55-.16a5.11,5.11,0,0,0-.62-.15L207,93a7.75,7.75,0,0,1-2.86-1.23,2.59,2.59,0,0,1-1-2.2,2.73,2.73,0,0,1,1.16-2.33,5.31,5.31,0,0,1,3.16-.84,5.81,5.81,0,0,1,3.33.89,2.86,2.86,0,0,1,1.3,2.5v.08h-2.21v0q0-1.59-2.4-1.59a2.89,2.89,0,0,0-1.55.35,1.06,1.06,0,0,0-.55.92,1.26,1.26,0,0,0,0,.33.75.75,0,0,0,.17.3l.24.23a1.6,1.6,0,0,0,.33.19l.36.16.44.14.44.12.5.11.47.12c.58.14,1.07.29,1.48.43a6.39,6.39,0,0,1,1.23.61,2.52,2.52,0,0,1,.95,1,2.8,2.8,0,0,1,.33,1.39A2.64,2.64,0,0,1,211.12,97a5.85,5.85,0,0,1-3.29.81,6.6,6.6,0,0,1-3.25-.72A3,3,0,0,1,203,95Z" transform="translate(-64.1 -76.45)"/><path class="cls-2" d="M214.58,95l2.12-.7c.23,1.12,1.12,1.68,2.66,1.68s2.29-.4,2.29-1.2a1.27,1.27,0,0,0-.08-.44,1,1,0,0,0-.31-.36,4.72,4.72,0,0,0-.4-.27,3.43,3.43,0,0,0-.56-.22l-.55-.16a5.11,5.11,0,0,0-.62-.15l-.56-.12a7.75,7.75,0,0,1-2.86-1.23,2.59,2.59,0,0,1-1-2.2,2.73,2.73,0,0,1,1.16-2.33,5.31,5.31,0,0,1,3.16-.84,5.81,5.81,0,0,1,3.33.89,2.86,2.86,0,0,1,1.3,2.5v.08h-2.21v0q0-1.59-2.4-1.59a2.89,2.89,0,0,0-1.55.35,1.06,1.06,0,0,0-.55.92,1.26,1.26,0,0,0,.05.33.75.75,0,0,0,.17.3l.24.23a1.6,1.6,0,0,0,.33.19l.36.16.44.14L219,91l.49.11.47.12c.58.14,1.07.29,1.48.43a6.39,6.39,0,0,1,1.23.61,2.46,2.46,0,0,1,.95,1,2.8,2.8,0,0,1,.33,1.39A2.64,2.64,0,0,1,222.69,97a5.85,5.85,0,0,1-3.29.81,6.6,6.6,0,0,1-3.25-.72A3,3,0,0,1,214.58,95Z" transform="translate(-64.1 -76.45)"/></g></svg>